/vscmnt/brussel_pixiu_data/_data_brussel/112/vsc11236/PredSimResults/SUBJ04_Falisse2022/weighted/worker_04.mot
version=1
nRows=4
nColumns=124
inDegrees=yes
endheader
                time	         pelvis_tilt	         pelvis_list	     pelvis_rotation	           pelvis_tx	           pelvis_ty	           pelvis_tz	       hip_flexion_r	     hip_adduction_r	      hip_rotation_r	        knee_angle_r	       ankle_angle_r	    subtalar_angle_r	         mtp_angle_r	       hip_flexion_l	     hip_adduction_l	      hip_rotation_l	        knee_angle_l	       ankle_angle_l	    subtalar_angle_l	         mtp_angle_l	    lumbar_extension	      lumbar_bending	     lumbar_rotation	          arm_flex_r	           arm_add_r	           arm_rot_r	        elbow_flex_r	          arm_flex_l	           arm_add_l	           arm_rot_l	        elbow_flex_l	glut_med1_r/activation	glut_med2_r/activation	glut_med3_r/activation	glut_min1_r/activation	glut_min2_r/activation	glut_min3_r/activation	semimem_r/activation	semiten_r/activation	bifemlh_r/activation	bifemsh_r/activation	    sar_r/activation	add_long_r/activation	add_brev_r/activation	add_mag1_r/activation	add_mag2_r/activation	add_mag3_r/activation	    tfl_r/activation	   pect_r/activation	   grac_r/activation	glut_max1_r/activation	glut_max2_r/activation	glut_max3_r/activation	iliacus_r/activation	  psoas_r/activation	quad_fem_r/activation	    gem_r/activation	   peri_r/activation	rect_fem_r/activation	vas_med_r/activation	vas_int_r/activation	vas_lat_r/activation	med_gas_r/activation	lat_gas_r/activation	 soleus_r/activation	tib_post_r/activation	flex_dig_r/activation	flex_hal_r/activation	tib_ant_r/activation	per_brev_r/activation	per_long_r/activation	per_tert_r/activation	ext_dig_r/activation	ext_hal_r/activation	glut_med1_l/activation	glut_med2_l/activation	glut_med3_l/activation	glut_min1_l/activation	glut_min2_l/activation	glut_min3_l/activation	semimem_l/activation	semiten_l/activation	bifemlh_l/activation	bifemsh_l/activation	    sar_l/activation	add_long_l/activation	add_brev_l/activation	add_mag1_l/activation	add_mag2_l/activation	add_mag3_l/activation	    tfl_l/activation	   pect_l/activation	   grac_l/activation	glut_max1_l/activation	glut_max2_l/activation	glut_max3_l/activation	iliacus_l/activation	  psoas_l/activation	quad_fem_l/activation	    gem_l/activation	   peri_l/activation	rect_fem_l/activation	vas_med_l/activation	vas_int_l/activation	vas_lat_l/activation	med_gas_l/activation	lat_gas_l/activation	 soleus_l/activation	tib_post_l/activation	flex_dig_l/activation	flex_hal_l/activation	tib_ant_l/activation	per_brev_l/activation	per_long_l/activation	per_tert_l/activation	ext_dig_l/activation	ext_hal_l/activation	 ercspn_r/activation	 ercspn_l/activation	 intobl_r/activation	 intobl_l/activation	 extobl_r/activation	 extobl_l/activation	
          1.38434946	         -7.34328334	         -2.31307540	          2.07438371	          1.24591451	          0.87513353	         -0.00501794	         30.97709153	          4.61376471	          4.13396800	         -4.69624105	          7.67172947	         -7.80834047	          0.21750296	        -10.91995329	          1.54299438	         12.17461006	         -4.65689326	          7.58704387	         -6.82589053	         26.92254709	          0.42677870	          0.72252818	         -1.99640647	         -0.29755166	        -13.44971173	         19.28802156	         24.15167005	          0.39559244	        -13.47267741	         19.27301540	         44.67556462	          0.02588860	          0.01000018	          0.01000017	          0.01227511	          0.01000063	          0.01000030	          0.08315876	          0.03351432	          0.01729480	          0.01000019	          0.01099299	          0.07040271	          0.18912949	          0.18498274	          0.14459886	          0.05977457	          0.01000056	          0.02824744	          0.07843365	          0.01000018	          0.01000016	          0.04327401	          0.01864288	          0.01864276	          0.14929373	          0.01000256	          0.01000059	          0.02706539	          0.10639284	          0.10545859	          0.08461253	          0.01000003	          0.01000009	          0.01000005	          0.01613870	          0.01514444	          0.01514643	          0.27729590	          0.13458004	          0.15835882	          0.06779129	          0.37693056	          0.04191334	          0.24884338	          0.20383554	          0.15567682	          0.18599819	          0.23239836	          0.20427975	          0.01000102	          0.01000034	          0.01000028	          0.04752507	          0.10488632	          0.01000028	          0.01000032	          0.01000069	          0.01000192	          0.01000060	          0.26089919	          0.01000172	          0.01000218	          0.04206249	          0.02759300	          0.01000319	          0.30905881	          0.39990357	          0.03475630	          0.03479288	          0.17157606	          0.03104760	          0.01000152	          0.01000168	          0.01000169	          0.31585330	          0.38439689	          0.35178743	          0.29778395	          0.27897112	          0.26355074	          0.01354491	          0.01230742	          0.01230775	          0.01000077	          0.01000888	          0.01000204	          0.03836055	          0.01000012	          0.05742220	          0.01000033	          0.05623612	          0.01000003	
          1.39819296	         -7.33918482	         -2.54931991	          2.30692842	          1.26166050	          0.87378857	         -0.00481306	         30.02471161	          4.97036255	          4.55530190	         -4.66124600	          6.73323653	         -8.33915410	          0.20107869	        -10.97836796	          1.37669107	         11.65527360	         -6.48749067	          7.65254662	         -6.30908447	         28.57437290	          0.57836132	          1.22446186	         -2.06758335	         -1.13937480	        -13.45595589	         19.21187692	         22.19270898	         -0.23073897	        -13.49538966	         19.20323789	         47.30850886	          0.03906777	          0.01000079	          0.01000107	          0.01000091	          0.01000128	          0.01000146	          0.06814591	          0.02726468	          0.03239262	          0.01000218	          0.01000126	          0.05720436	          0.15367331	          0.15030402	          0.11749094	          0.04856870	          0.01000231	          0.02295268	          0.06372999	          0.01000313	          0.01326847	          0.03516162	          0.01514798	          0.01514789	          0.12130586	          0.01317087	          0.11591067	          0.02199145	          0.08644741	          0.08568831	          0.06875027	          0.01864192	          0.01864181	          0.01798011	          0.01311320	          0.01230633	          0.01230779	          0.33005485	          0.19528129	          0.12867129	          0.05508440	          0.44154416	          0.03405588	          0.24536639	          0.16562239	          0.12649199	          0.15119443	          0.18883071	          0.16598337	          0.01524424	          0.01230984	          0.01230825	          0.03861561	          0.08522357	          0.01000162	          0.01000112	          0.01000237	          0.01000541	          0.01000257	          0.21198843	          0.01000590	          0.01237577	          0.03417759	          0.02242062	          0.01000298	          0.28194364	          0.34155175	          0.02824062	          0.02827067	          0.13941061	          0.02522713	          0.01000033	          0.01000034	          0.01000032	          0.26607546	          0.34840442	          0.35457058	          0.28525505	          0.26112849	          0.25853901	          0.01100575	          0.01000031	          0.01000046	          0.01000047	          0.01000016	          0.01000140	          0.03116908	          0.01993837	          0.06526602	          0.01000041	          0.04569350	          0.01230731	
          1.41203645	         -7.33164776	         -2.78767739	          2.52037244	          1.27764945	          0.87256094	         -0.00458767	         28.96703117	          5.29214232	          4.98001692	         -4.53005603	          5.84943690	         -8.87934789	          0.19893083	        -10.94434533	          1.20730166	         11.10689007	         -8.49999082	          7.60331148	         -5.79305121	         30.18232589	          0.73917654	          1.73998234	         -2.12929030	         -2.05141949	        -13.46686991	         19.16748655	         20.37524469	         -0.93789630	        -13.51601923	         19.11745972	         49.97784510	          0.12041557	          0.13910738	          0.16913402	          0.07390461	          0.07392677	          0.09865655	          0.05537061	          0.03944486	          0.02632070	          0.02294415	          0.01230721	          0.04648030	          0.12486412	          0.12212658	          0.09546508	          0.03946371	          0.01000304	          0.01865041	          0.05178282	          0.08001503	          0.03129591	          0.02857009	          0.01230829	          0.01230823	          0.09856484	          0.01078988	          0.12211241	          0.01786874	          0.07024119	          0.06962441	          0.05586175	          0.01514712	          0.01514704	          0.01460937	          0.01065491	          0.01000057	          0.01000082	          0.41734261	          0.22193197	          0.14505333	          0.29100897	          0.47767693	          0.16969300	          0.25998024	          0.13457309	          0.10277847	          0.19322702	          0.15343076	          0.13486644	          0.01238833	          0.01000259	          0.01000123	          0.03137638	          0.06924692	          0.01000059	          0.01000063	          0.01000131	          0.01000286	          0.01000105	          0.17224719	          0.01000313	          0.01005689	          0.02777079	          0.01821787	          0.01000209	          0.22908800	          0.29416899	          0.02294642	          0.02297116	          0.11327524	          0.02294441	          0.01000070	          0.01000071	          0.01000066	          0.21619412	          0.28308916	          0.34157632	          0.27490227	          0.25171340	          0.25032779	          0.01000025	          0.01000024	          0.01000015	          0.01000059	          0.01000023	          0.01000130	          0.04434337	          0.03123127	          0.05632035	          0.01000002	          0.03712732	          0.01000011	
          1.42587994	         -7.32201218	         -3.01612315	          2.71662508	          1.29368518	          0.87159407	         -0.00431710	         27.87098814	          5.60063783	          5.39397758	         -4.32395372	          4.94414479	         -9.42013468	          0.19015212	        -10.78926229	          1.03811684	         10.54862810	        -10.70815874	          7.40668081	         -5.25797855	         31.68684912	          0.89645498	          2.25099985	         -2.18346820	         -2.99527495	        -13.47088793	         19.16955560	         18.69176482	         -1.66883925	        -13.53193114	         19.04503117	         52.60053934	          0.19538492	          0.22253791	          0.24934687	          0.06057407	          0.11643575	          0.14534664	          0.04499039	          0.03411974	          0.02553141	          0.01864289	          0.01000182	          0.03776668	          0.10145581	          0.09923167	          0.07756879	          0.03758659	          0.01000179	          0.01515472	          0.04207531	          0.13441523	          0.07829217	          0.04029450	          0.01000096	          0.01000092	          0.08008716	          0.01229068	          0.13071450	          0.01451894	          0.05707493	          0.05657378	          0.04539119	          0.01230749	          0.01230746	          0.01187056	          0.01000058	          0.01000140	          0.01000124	          0.48368962	          0.24748896	          0.14467777	          0.35681204	          0.51761492	          0.20022502	          0.23620025	          0.10934460	          0.08351053	          0.16556804	          0.12466716	          0.10958300	          0.01010578	          0.01000139	          0.01000084	          0.02549428	          0.05626532	          0.01972125	          0.01000533	          0.01000348	          0.01001597	          0.01000319	          0.13995608	          0.03334267	          0.01000382	          0.02256501	          0.01480299	          0.01000180	          0.18614084	          0.23902110	          0.01864471	          0.01866505	          0.09203949	          0.01864320	          0.01000138	          0.01000140	          0.01000118	          0.17566406	          0.23001831	          0.31822877	          0.26339928	          0.24259136	          0.23977863	          0.01000013	          0.01113488	          0.01514437	          0.01000089	          0.01000023	          0.01000079	          0.05646374	          0.05019109	          0.04576198	          0.01000003	          0.03016704	          0.01000006	
